<svg width="64" height="64" viewBox="0 0 64 64" fill="none" xmlns="http://www.w3.org/2000/svg">
<rect width="64" height="64" rx="32" fill="#F5F5F5"/>
<path d="M42.0332 19.7952C41.4144 19.1832 40.6769 18.7043 39.866 18.3881C39.0551 18.072 38.1881 17.9252 37.3184 17.9569C35.6457 18.018 34.0596 18.7163 32.885 19.9087C31.7103 21.1011 31.036 22.6975 31 24.3709C30.9766 25.7896 31.4259 27.1758 32.2773 28.3109C32.3975 28.4901 35.3115 32.5428 36.2061 33.783C36.3505 33.9787 36.5387 34.138 36.7556 34.248C36.9725 34.3581 37.2121 34.416 37.4553 34.417C37.6985 34.4181 37.9386 34.3623 38.1565 34.254C38.3743 34.1458 38.5638 33.9882 38.71 33.7938C38.71 33.7938 42.5654 28.5257 42.6816 28.3773C43.5321 27.2455 43.9944 25.8695 44 24.4539C44.003 23.5849 43.8303 22.7243 43.4923 21.9237C43.1543 21.1232 42.658 20.3992 42.0332 19.7952ZM37.5 27.0472C37.0055 27.0472 36.5222 26.9006 36.1111 26.6259C35.7 26.3512 35.3795 25.9607 35.1903 25.5039C35.0011 25.0471 34.9516 24.5444 35.048 24.0595C35.1445 23.5745 35.3826 23.1291 35.7322 22.7794C36.0819 22.4298 36.5273 22.1917 37.0123 22.0952C37.4972 21.9988 37.9999 22.0483 38.4567 22.2375C38.9135 22.4267 39.304 22.7471 39.5787 23.1583C39.8534 23.5694 40 24.0527 40 24.5472C39.9993 25.21 39.7357 25.8455 39.267 26.3142C38.7983 26.7829 38.1628 27.0465 37.5 27.0472ZM21 43.5472C21 44.0416 20.8534 44.525 20.5787 44.9361C20.304 45.3472 19.9135 45.6677 19.4567 45.8569C18.9999 46.0461 18.4972 46.0956 18.0123 45.9991C17.5273 45.9027 17.0819 45.6646 16.7322 45.315C16.3826 44.9653 16.1445 44.5199 16.048 44.0349C15.9516 43.55 16.0011 43.0473 16.1903 42.5905C16.3795 42.1337 16.7 41.7432 17.1111 41.4685C17.5222 41.1938 18.0055 41.0472 18.5 41.0472C19.1628 41.048 19.7982 41.3116 20.2669 41.7803C20.7356 42.249 20.9992 42.8844 21 43.5472ZM32 41.0472C31.9991 41.8426 31.6828 42.6051 31.1204 43.1675C30.5579 43.73 29.7954 44.0463 29 44.0472H22.9495C23.0484 43.3722 22.9706 42.6831 22.7236 42.0472H29C29.2652 42.0472 29.5196 41.9418 29.7071 41.7543C29.8946 41.5668 30 41.3124 30 41.0472C30 40.782 29.8946 40.5276 29.7071 40.3401C29.5196 40.1525 29.2652 40.0472 29 40.0472H25C24.2046 40.0463 23.4421 39.73 22.8796 39.1675C22.3172 38.6051 22.0009 37.8426 22 37.0472V36.0472C22.0009 35.2518 22.3172 34.4892 22.8796 33.9268C23.4421 33.3644 24.2046 33.0481 25 33.0472H33.212C33.8504 33.9151 34.2956 34.5938 34.6708 35.0472H25C24.7349 35.0475 24.4807 35.153 24.2933 35.3405C24.1058 35.5279 24.0003 35.7821 24 36.0472V37.0472C24.0003 37.3123 24.1058 37.5665 24.2933 37.7539C24.4807 37.9414 24.7349 38.0468 25 38.0472H29C29.7954 38.0481 30.5579 38.3644 31.1204 38.9268C31.6828 39.4892 31.9991 40.2518 32 41.0472Z" fill="black"/>
</svg>
